<svg style="object-fit:cover" id="my-svg" version="1" baseProfile="full" width="100%" height="100%" viewBox="0 0 1156 673" xmlns="http://www.w3.org/2000/svg"><rect width="1156" height="673" fill="#000"/><defs><linearGradient id="linear-gradient" x1="0" x2="1" y1="0" y2="1"><stop offset="0%" stop-color="#ffffff90"/><stop offset="100%" stop-color="#1cba2e90"/></linearGradient></defs><path transform="scale(1, 1)" d="M 0,673 V 0,373 C 34.257373091191056,316.51186920087764 68.51474618238211,260.0237384017552 103,271 C 137.4852538176179,281.9762615982448 172.19838836166258,360.4169155938566 215,372 C 257.8016116383374,383.5830844061434 308.69170037096757,328.3085992228185 349,306 C 389.30829962903243,283.6914007771815 419.03481015446704,294.34868751486954 456,339 C 492.96518984553296,383.65131248513046 537.1690590111642,462.2966507177034 582,451 C 626.8309409888358,439.7033492822966 672.288953800876,338.464709614317 713,322 C 753.711046199124,305.535290385683 789.6751257853322,373.8445108250284 827,372 C 864.3248742146678,370.1554891749716 903.0105430577952,298.15724708556934 943,266 C 982.9894569422048,233.8427529144307 1024.282701983487,241.52650083269447 1060,266 C 1095.717298016513,290.47349916730553 1125.8586490082566,331.7367495836528 1156,373 C 1156,373 1156,673 1156,673 Z" stroke="none" stroke-width="0" fill="url(#linear-gradient)" class="transition-all duration-300 ease-in-out delay-150" style="transform-origin: center center;"/><defs><linearGradient id="linear-gradient" x1="0" x2="1" y1="0" y2="1"><stop offset="0%" stop-color="#ffffffff"/><stop offset="100%" stop-color="#1cba2eff"/></linearGradient></defs><path transform="scale(1, 1)" d="M 0,673 V 0,559 C 40.79997268409598,560.3346770995797 81.59994536819195,561.6693541991594 122,530 C 162.40005463180805,498.3306458008406 202.4001912113282,433.6572603029422 244,460 C 285.5998087886718,486.3427396970578 328.7992897864953,603.7016045890718 365,646 C 401.2007102135047,688.2983954109282 430.40264964269045,655.5363213407702 464,596 C 497.59735035730955,536.4636786592298 535.5901116427432,450.153110047847 579,423 C 622.4098883572568,395.846889952153 671.2369037863367,427.85123846784205 714,469 C 756.7630962136633,510.14876153215795 793.4622732119099,560.4419360807846 825,597 C 856.5377267880901,633.5580639192154 882.9140033660243,656.3810172090195 921,662 C 959.0859966339757,667.6189827909805 1008.8817133239929,656.0339950831373 1050,636 C 1091.118286676007,615.9660049168627 1123.5591433380037,587.4830024584314 1156,559 C 1156,559 1156,673 1156,673 Z" stroke="none" stroke-width="0" fill="url(#linear-gradient)" class="transition-all duration-300 ease-in-out delay-150" style="transform-origin: center center;"/></svg>