<?xml version="1.0" encoding="UTF-8"?>
<svg width="800px" height="1000px" viewBox="0 0 800 1000" version="1.1" xmlns="http://www.w3.org/2000/svg" xmlns:xlink="http://www.w3.org/1999/xlink">
    <!-- Generator: Sketch 64 (93537) - https://sketch.com -->
    <title>rocket_0001_DL</title>
    <desc>Created with Sketch.</desc>
    <g id="rocket_0001_DL" stroke="none" stroke-width="1" fill="none" fill-rule="evenodd" stroke-linecap="round" stroke-linejoin="round">
        <g id="rocket_0001" transform="translate(317.000000, 390.000000)" stroke="#FFFFFF">
            <g id="Path">
                <path d="M90.3195158,150.65448 C86.19551,139.970779 54.7916225,141.612624 53.0394408,132.856985 C52.3729348,129.526459 60.3527818,118.79332 61.9409406,115.618913 C82.8681872,73.7921966 102.360884,42.0795157 142.070061,15.6252557 C143.399601,14.7388503 153.376248,9.53043168 172,2.84217094e-14 C170.897486,17.3917302 169.887138,30.6757411 168.968956,39.8520327 C166.849675,61.0425012 151.513097,92.8490472 142.070061,111.726362 C132.548918,130.75459 119.788974,151.08901 102.561356,164" stroke-width="16"></path>
                <path d="M40.6238864,156 C37.2446305,160.731807 32.9184546,167.596699 28.3919687,172.123002 C21.760927,178.753775 21.9742442,178.790193 15.0492411,182.686976 C14.0867124,183.228051 -3.40529399,188.940557 0.593101888,192.137583 C8.51965507,198.479609 35.8268519,179.789101 43.4048136,175.457898 C48.9822767,172.271277 55.9645113,159.548205 59.5284686,164.896526 C67.1948789,176.394374 30.5121331,203.500163 33.9512218,213.819612 C37.1613848,223.44711 67.7099618,181.573609 68.979459,181.573609 C73.8337249,181.573609 55.6185213,212.511147 66.7552375,219.935324 C69.2031818,221.568955 80.959038,191.744783 81.7680824,188.246003 C90.9589299,148.414541 85.0094625,209.74594 94,173.79045" stroke-width="6" opacity="0.503384" fill-rule="nonzero"></path>
                <path d="M65,89.9140341 C60.824453,74.0715665 20.325042,127.989143 23.1400762,127.989143 C30.5667526,127.989143 42.0201291,128.187949 49.9299051,126.884095" stroke-width="12"></path>
                <path d="M134.917413,143 C139.706678,158.520178 136.438615,176.577728 123,187" stroke-width="12"></path>
                <path d="M109,170 C113.673797,177.360355 117,192.64566 117,197" stroke-width="12"></path>
                <path d="M139.596984,44.3361136 C143.95658,43.0158371 147.364614,45.7023572 147.886938,50.3399244 C148.484249,55.6567827 146.751789,63.2387964 141.807811,66.1679206 C124.974499,76.1427759 118.018798,42.0275449 139.046217,44.3361136" stroke-width="12"></path>
            </g>
        </g>
    </g>
</svg>